<svg data-v-fde0c5aa="" xmlns="http://www.w3.org/2000/svg" viewBox="0 0 300 300" class="iconAbove"><!----><defs data-v-fde0c5aa=""><!----></defs><rect data-v-fde0c5aa="" fill="#351B4E" x="0" y="0" width="300px" height="300px" class="logo-background-square"></rect><defs data-v-fde0c5aa=""><!----></defs><g data-v-fde0c5aa="" id="e00623d8-72d0-400c-a4c7-0c991eb85ae3" fill="#FFFFFF" transform="matrix(6.017125792845249,0,0,6.017125792845249,14.704929330988072,153.40407404556203)"><path d="M4.48 6.99C3.53 6.99 2.76 7.41 2.31 8.15L2.31 7.11L0.88 7.11L0.88 14L2.31 14L2.31 9.97C2.31 8.86 3.00 8.13 4.06 8.13C5.10 8.13 5.77 8.86 5.77 9.97L5.77 14L7.21 14L7.21 9.77C7.21 8.11 6.06 6.99 4.48 6.99ZM15.83 10.57C15.82 8.48 14.29 6.99 12.17 6.99C10.04 6.99 8.48 8.48 8.48 10.56C8.48 12.63 10.04 14.13 12.17 14.13C13.86 14.13 15.33 13.03 15.72 11.51L14.27 11.51C14 12.33 13.16 12.95 12.18 12.95C10.99 12.95 10.08 12.15 9.90 11.00L15.79 11.00C15.82 10.86 15.83 10.71 15.83 10.57ZM12.18 8.16C13.31 8.16 14.22 8.88 14.46 9.90L9.94 9.90C10.19 8.86 11.06 8.16 12.18 8.16ZM21.78 7.11L19.74 12.59L17.70 7.11L16.17 7.11L18.89 14L20.59 14L23.31 7.11ZM31.08 10.57C31.07 8.48 29.54 6.99 27.41 6.99C25.28 6.99 23.73 8.48 23.73 10.56C23.73 12.63 25.28 14.13 27.41 14.13C29.11 14.13 30.58 13.03 30.97 11.51L29.51 11.51C29.25 12.33 28.41 12.95 27.43 12.95C26.24 12.95 25.33 12.15 25.14 11.00L31.04 11.00C31.07 10.86 31.08 10.71 31.08 10.57ZM27.43 8.16C28.56 8.16 29.47 8.88 29.71 9.90L25.19 9.90C25.44 8.86 26.31 8.16 27.43 8.16ZM36.02 6.99C35.07 6.99 34.30 7.41 33.85 8.15L33.85 7.11L32.42 7.11L32.42 14L33.85 14L33.85 9.97C33.85 8.86 34.54 8.13 35.60 8.13C36.64 8.13 37.31 8.86 37.31 9.97L37.31 14L38.75 14L38.75 9.77C38.75 8.11 37.60 6.99 36.02 6.99ZM44.09 7.11L42.53 7.11L42.53 5.33L41.09 5.33L41.09 7.11L39.82 7.11L39.82 8.32L41.09 8.32L41.09 14L42.53 14L42.53 8.32L44.09 8.32Z"></path></g><defs data-v-fde0c5aa=""><!----></defs><g data-v-fde0c5aa="" id="81b692b0-9424-4c51-9d10-114c4487276c" stroke="none" fill="#33D0F4" transform="matrix(1.4441562970153885,0,0,1.4441562970153885,85.71771134291569,50.14921698364522)"><path d="M82.914 22.033a1.5 1.5 0 0 0-1.5-1.5H67.719a1.5 1.5 0 0 0-1.5 1.5v5.902c0 .118.017.232.043.342v6.422a3.972 3.972 0 0 0-1.005-.143c-2.208 0-4.004 1.796-4.004 4.004s1.796 4.004 4.004 4.004 4.005-1.796 4.005-4.004c0-.222-.031-.435-.065-.647a1.5 1.5 0 0 0 .065-.415v-8.063H79.9v5.264a3.964 3.964 0 0 0-1.004-.143c-2.208 0-4.004 1.796-4.004 4.004s1.796 4.004 4.004 4.004S82.9 40.768 82.9 38.56c0-.222-.031-.435-.065-.647a1.5 1.5 0 0 0 .065-.415v-9.427c.004-.045.014-.089.014-.136v-5.902zm-13.695 1.5h10.694v2.902H69.219v-2.902zm-3.962 16.032c-.554 0-1.004-.451-1.004-1.004a1.005 1.005 0 0 1 2.009 0c0 .553-.451 1.004-1.005 1.004zm13.639 0c-.554 0-1.004-.451-1.004-1.004s.45-1.004 1.004-1.004a1.004 1.004 0 1 1 0 2.008zM14.119 36.287c0-.489-.101-.952-.262-1.385v-5.386l10.694-2.04v4.971a3.954 3.954 0 0 0-1.071-.164c-2.208 0-4.005 1.796-4.005 4.004s1.797 4.004 4.005 4.004 4.004-1.796 4.004-4.004c0-.166-.029-.323-.049-.484.075-.178.116-.373.116-.579V19.76a1.499 1.499 0 0 0-1.781-1.474l-13.694 2.612a1.5 1.5 0 0 0-1.219 1.474v9.986a3.958 3.958 0 0 0-.743-.075c-2.208 0-4.004 1.796-4.004 4.004s1.796 4.004 4.004 4.004 4.005-1.796 4.005-4.004zm9.361 1.005c-.554 0-1.005-.451-1.005-1.004s.451-1.004 1.005-1.004a1.005 1.005 0 0 1 0 2.008zm-9.623-13.679l10.694-2.04v2.849l-10.694 2.04v-2.849zm-3.743 13.679c-.554 0-1.004-.451-1.004-1.004s.45-1.004 1.004-1.004c.371 0 .683.211.857.511.022.053.052.102.079.151.039.107.069.22.069.341 0 .554-.452 1.005-1.005 1.005z"></path><path d="M67.062 58.822c-.013-9.595-6.093-17.793-14.602-20.96v-5.389a1.5 1.5 0 0 0-1.5-1.5h-4.662V9.411a1.5 1.5 0 1 0-3 0v21.562h-4.854a1.5 1.5 0 0 0-1.5 1.5v5.366c-8.54 3.151-14.647 11.366-14.66 20.983-.03.118-.051.24-.051.367 0 .149.029.291.069.427.405 11.993 10.281 21.626 22.37 21.626s21.966-9.633 22.37-21.626c.041-.136.069-.278.069-.427a1.4 1.4 0 0 0-.049-.367zm-5.664 9.795h-4.939c.706-2.413 1.148-5.082 1.269-7.927h6.242a19.223 19.223 0 0 1-2.572 7.927zM25.377 60.69h6.243c.121 2.845.563 5.515 1.269 7.927h-4.94a19.223 19.223 0 0 1-2.572-7.927zm2.181-10.928h5.276c-.689 2.417-1.113 5.087-1.219 7.927h-6.272c.17-2.849.941-5.537 2.215-7.927zm18.615-3v-6.004c2.333.672 4.427 2.866 5.966 6.004h-5.966zm7.174 3c.773 2.376 1.265 5.07 1.388 7.927h-8.562v-7.927h7.174zm-10.174-9.003v6.004h-5.965c1.54-3.138 3.633-5.332 5.965-6.004zm0 9.003v7.927h-8.561c.123-2.857.615-5.551 1.388-7.927h7.173zM34.618 60.69h8.555v7.927h-7.108c-.792-2.37-1.307-5.063-1.447-7.927zm8.555 10.927v5.811c-2.284-.658-4.34-2.776-5.87-5.811h5.87zm3 5.811v-5.811h5.871c-1.53 3.035-3.586 5.153-5.871 5.811zm0-8.811V60.69h8.556c-.14 2.864-.655 5.557-1.447 7.927h-7.109zm11.56-10.927c-.106-2.841-.531-5.511-1.219-7.927h5.133c.046 0 .09-.01.135-.014a19.258 19.258 0 0 1 2.222 7.941h-6.271zm2.073-10.928h-4.325c-1.001-2.401-2.295-4.424-3.799-5.968a19.473 19.473 0 0 1 8.124 5.968zM39.945 33.973h9.516v3.011a22.347 22.347 0 0 0-4.787-.521c-1.622 0-3.203.178-4.729.507v-2.997zm-2.279 6.821c-1.505 1.544-2.799 3.567-3.799 5.968H29.54a19.47 19.47 0 0 1 8.126-5.968zm-7.552 30.823h3.839c.832 1.948 1.857 3.643 3.032 5.029a19.484 19.484 0 0 1-6.871-5.029zm22.248 5.028c1.176-1.385 2.2-3.08 3.032-5.028h3.838a19.47 19.47 0 0 1-6.87 5.028zM20.295 47.815l-5.764-2.473a1.501 1.501 0 0 0-1.184 2.757l5.764 2.473a1.502 1.502 0 0 0 1.971-.787 1.5 1.5 0 0 0-.787-1.97zM18.341 69.122l-5.764 2.473a1.5 1.5 0 0 0 1.184 2.757l5.764-2.473a1.5 1.5 0 0 0-1.184-2.757zM12.664 61.353l6.271-.013a1.5 1.5 0 0 0-.003-3h-.003l-6.271.013a1.5 1.5 0 0 0 .003 3h.003zM70.259 50.693c.197 0 .397-.039.591-.122l5.764-2.473a1.5 1.5 0 0 0-1.184-2.757l-5.764 2.473a1.5 1.5 0 0 0 .593 2.879zM75.383 71.594l-5.763-2.473a1.501 1.501 0 0 0-1.184 2.757l5.763 2.473a1.502 1.502 0 0 0 1.971-.787 1.5 1.5 0 0 0-.787-1.97zM77.303 58.353l-6.271-.013h-.003a1.5 1.5 0 0 0-.003 3l6.271.013h.003a1.5 1.5 0 0 0 .003-3z"></path></g></svg>